# xmcd CD database file
#
# Track frame offsets:
#	150
#	21698
#	41330
#	66192
#	88461
#	111881
#	131720
#	147964
#	169821
#	191164
#	210288
#
# Disc length: 3031 seconds
#
# Revision: 5
# Processed by: cddbd v1.5.1PL0 Copyright (c) Steve Scherf et al.
# Submitted via: CDex 1.50Beta5
#
DISCID=a70bd50b
DTITLE=MIGUEL BOSÉ - Sereno
DYEAR=2001
DGENRE=Pop
TTITLE0=Puede Que
TTITLE1=Gulliver
TTITLE2=Mirarte
TTITLE3=El Hijo Del Capitán Trueno
TTITLE4=Te Digo Amor
TTITLE5=Tic Tac
TTITLE6=Mientras Respire
TTITLE7=Morenamía
TTITLE8=La Noche Me Gusta
TTITLE9=Millones De Km. De Aquí
TTITLE10=Sereno
EXTD=YEAR: 2001
EXTT0=
EXTT1=
EXTT2=
EXTT3=
EXTT4=
EXTT5=
EXTT6=
EXTT7=
EXTT8=
EXTT9=
EXTT10=
PLAYORDER=
